<svg id="Capa_1" enable-background="new 0 0 512 512" height="512" viewBox="0 0 512 512" width="512"
  xmlns="http://www.w3.org/2000/svg">
  <g>
    <path d="m101.759 76.984h16.516v66.065h-16.516z" fill="#FFAB40" transform="matrix(.707 -.707 .707 .707 -45.57 110.017)"/>
    <path d="m148.473 123.699h16.516v66.065h-16.516z" fill="#FF9100" transform="matrix(.707 -.707 .707 .707 -64.92 156.731)"/>
    <circle cx="86.659" cy="86.659" fill="#FF9100" r="16.516"/>
    <path d="m393.725 368.951h16.516v66.065h-16.516z" fill="#FFAB40" transform="matrix(-.707 .707 -.707 -.707 970.474 401.983)"/>
    <path d="m347.011 322.236h16.516v66.065h-16.516z" fill="#FF9100" transform="matrix(-.707 .707 -.707 -.707 857.695 355.269)"/>
    <path d="m256 256 85.812 64.359c4.02 3.015 4.438 8.892.884 12.446l-9.892 9.892c-3.554 3.554-9.431 3.136-12.446-.884z" fill="#FF6D00"/>
    <path d="m256 256-85.812-64.359c-4.02-3.015-4.438-8.892-.884-12.446l9.892-9.892c3.554-3.554 9.431-3.136 12.446.884z" fill="#FF6D00"/>
    <circle cx="425.341" cy="425.341" fill="#FF9100" r="16.516"/>
    <path d="m101.759 368.951h16.516v66.065h-16.516z" fill="#FFAB40" transform="matrix(-.707 -.707 .707 -.707 -96.435 764.022)"/>
    <path d="m148.473 322.236h16.516v66.065h-16.516z" fill="#FF9100" transform="matrix(-.707 -.707 .707 -.707 16.344 717.307)"/>
    <circle cx="86.659" cy="425.341" fill="#FF9100" r="16.516"/>
    <path d="m393.725 76.984h16.516v66.065h-16.516z" fill="#FFAB40" transform="matrix(.707 .707 -.707 .707 195.532 -252.022)"/>
    <path d="m347.011 123.699h16.516v66.065h-16.516z" fill="#FF9100" transform="matrix(.707 .707 -.707 .707 214.882 -205.307)"/>
    <path d="m256 256 64.359-85.812c3.015-4.02 8.892-4.438 12.446-.885l9.892 9.892c3.554 3.554 3.136 9.431-.884 12.446z" fill="#FF6D00"/>
    <path d="m256 256-64.359 85.812c-3.015 4.02-8.892 4.438-12.446.884l-9.892-9.892c-3.554-3.554-3.136-9.431.885-12.446z" fill="#FF6D00"/>
    <circle cx="425.341" cy="86.659" fill="#FF9100" r="16.516"/>
    <path d="m41.29 222.968h16.516v66.065h-16.516z" fill="#FFAB40" transform="matrix(0 -1 1 0 -206.452 305.548)"/>
    <path d="m107.355 222.968h16.516v66.065h-16.516z" fill="#FF9100" transform="matrix(0 -1 1 0 -140.387 371.613)"/>
    <circle cx="16.516" cy="256" fill="#FF9100" r="16.516"/>
    <path d="m454.194 222.968h16.516v66.065h-16.516z" fill="#FFAB40" transform="matrix(0 1 -1 0 718.452 -206.452)"/>
    <path d="m388.129 222.968h16.516v66.065h-16.516z" fill="#FF9100" transform="matrix(0 1 -1 0 652.387 -140.387)"/>
    <path d="m256 256 106.187-15.17c4.975-.711 9.426 3.15 9.426 8.175v13.989c0 5.025-4.451 8.886-9.426 8.175z" fill="#FF6D00"/>
    <path d="m256 256-106.187 15.17c-4.975.711-9.426-3.15-9.426-8.175v-13.989c0-5.025 4.451-8.886 9.426-8.175z" fill="#FF6D00"/>
    <circle cx="495.484" cy="256" fill="#FF9100" r="16.516"/>
    <path d="m247.742 429.419h16.516v66.065h-16.516z" fill="#FFAB40" transform="matrix(-1 0 0 -1 512 924.903)"/>
    <path d="m247.742 363.355h16.516v66.065h-16.516z" fill="#FF9100" transform="matrix(-1 0 0 -1 512 792.774)"/>
    <circle cx="256" cy="495.484" fill="#FF9100" r="16.516"/>
    <path d="m247.742 16.516h16.516v66.065h-16.516z" fill="#FFAB40"/>
    <path d="m247.742 82.581h16.516v66.065h-16.516z" fill="#FF9100"/>
    <path d="m256 256-15.17-106.187c-.711-4.975 3.15-9.426 8.175-9.426h13.989c5.025 0 8.886 4.451 8.175 9.426z" fill="#FF6D00"/>
    <path d="m256 256 15.17 106.187c.711 4.975-3.15 9.426-8.175 9.426h-13.989c-5.025 0-8.886-4.451-8.175-9.426z" fill="#FF6D00"/>
    <circle cx="256" cy="16.516" fill="#FF9100" r="16.516"/>
    <path d="m256 66.065c-49.296 0-94.205 18.779-127.964 49.574-38.079 34.735-56.036 84.758-56.036 140.361 0 104.898 79.101 183.75 184 183.75 55.601 0 105.623-17.706 140.358-55.783 30.797-33.76 49.578-78.67 49.578-127.967-.001-104.899-85.037-189.935-189.936-189.935zm0 346.838c-86.655 0-156.903-70.248-156.903-156.903s70.248-156.903 156.903-156.903 156.903 70.248 156.903 156.903-70.248 156.903-156.903 156.903z" fill="#FFAB40"/>
    <circle cx="256" cy="256" fill="#FFAB40" r="57.806"/>
    <path d="m280.774 256c0-13.682-11.092-24.774-24.774-24.774-4.034 0-7.843.964-11.209 2.675-8.05 4.091-9.291 22.1-9.291 22.1 0 13.682 6.818 20 20.5 20 0 0 18.002-.737 22.095-8.782 1.713-3.369 2.679-7.181 2.679-11.219z" fill="#FF9100"/>
    <path d="m268.387 433.548c-104.899 0-189.935-85.037-189.935-189.936 0-49.298 18.787-94.214 49.584-127.974-38.076 34.736-61.971 84.761-61.971 140.362 0 104.898 85.037 189.935 189.935 189.935 55.601 0 105.623-23.892 140.358-61.968-33.76 30.798-78.673 49.581-127.971 49.581z" fill="#FF9100"/>
    <path d="m266.839 269.935c-13.682 0-24.774-11.092-24.774-24.774 0-4.038 1.013-7.892 2.727-11.261-8.044 4.093-13.566 12.455-13.566 22.1 0 13.682 11.092 24.774 24.774 24.774 9.644 0 18.002-5.513 22.095-13.556-3.369 1.714-7.218 2.717-11.256 2.717z" fill="#FF6D00"/>
  </g>
</svg>